<?xml version="1.0" encoding="UTF-8"?>
<svg version="1.1" xmlns="http://www.w3.org/2000/svg" width="1408" height="768">
<path d="M0 0 C464.64 0 929.28 0 1408 0 C1408 253.44 1408 506.88 1408 768 C943.36 768 478.72 768 0 768 C0 514.56 0 261.12 0 0 Z " fill="#F6F8F8" transform="translate(0,0)"/>
<path d="M0 0 C0.70519775 0.00676758 1.41039551 0.01353516 2.13696289 0.02050781 C15.98762311 0.29323976 28.19376114 4.80797793 38.453125 14.28515625 C43.37199024 19.44996476 46.10128963 24.48721685 48.25 31.25 C48.6625 32.405 49.075 33.56 49.5 34.75 C51.76220604 45.3069615 49.88121361 56.02011729 44.625 65.4375 C38.90727684 74.19716454 32.02488593 80.44556996 22.25 84.25 C21.61030273 84.50821533 20.97060547 84.76643066 20.31152344 85.0324707 C14.31609474 87.27311262 8.87028159 87.75814493 2.5 87.6875 C1.53352539 87.67920166 0.56705078 87.67090332 -0.42871094 87.66235352 C-14.95677804 87.32044507 -25.85982616 82.56973127 -36.0625 72.0625 C-45.04703557 61.45929304 -46.70012146 48.64671259 -45.75 35.25 C-43.27078562 23.49613423 -36.38572032 14.60895231 -26.59375 7.9375 C-22.47560254 5.49376415 -18.28649353 3.74979001 -13.75 2.25 C-12.35974609 1.71246094 -12.35974609 1.71246094 -10.94140625 1.1640625 C-7.24358088 0.10495462 -3.81138119 -0.05287887 0 0 Z " fill="#1C3556" transform="translate(609.75,340.75)"/>
<path d="M0 0 C13.48875 -0.1546875 13.48875 -0.1546875 27.25 -0.3125 C30.0643457 -0.35802002 32.87869141 -0.40354004 35.77832031 -0.45043945 C38.04490981 -0.4650621 40.31151258 -0.47779854 42.578125 -0.48828125 C43.72587402 -0.51386108 44.87362305 -0.53944092 46.05615234 -0.5657959 C54.94263558 -0.57052476 63.49903598 0.98952716 70.33233643 7.07817078 C75.45993202 12.56277489 76.36830625 17.01344426 76.28125 24.40234375 C75.56022403 31.06181975 71.8611884 35.67894364 67 40 C67.51949219 40.268125 68.03898437 40.53625 68.57421875 40.8125 C74.00615676 43.86482746 77.9575584 46.95738476 80 53 C80.78670025 59.02904791 81.25747249 65.51647698 78.375 71.0625 C72.26202286 78.62328751 64.88905736 82.4860668 55.22309875 83.79873657 C50.40262416 84.23514779 45.55852893 84.11997377 40.72265625 84.09765625 C39.68782104 84.09664917 38.65298584 84.09564209 37.58679199 84.09460449 C33.74534995 84.08939833 29.90392379 84.07543717 26.0625 84.0625 C13.1615625 84.0315625 13.1615625 84.0315625 0 84 C0 56.28 0 28.56 0 0 Z " fill="#1C3558" transform="translate(399,343)"/>
<path d="M0 0 C7.59 0 15.18 0 23 0 C33.44695552 20.68070787 43.44526312 41.5878544 53.40478516 62.50683594 C56.2067835 68.38126679 59.07928728 74.20932898 62.07421875 79.98828125 C63 82 63 82 63 84 C55.41 84 47.82 84 40 84 C38.68 80.7 37.36 77.4 36 74 C35.01 71.69 34.02 69.38 33 67 C19.14 67 5.28 67 -9 67 C-11.31 72.28 -13.62 77.56 -16 83 C-17 84 -17 84 -19.04125977 84.11352539 C-19.91580811 84.10828857 -20.79035645 84.10305176 -21.69140625 84.09765625 C-22.63564453 84.09443359 -23.57988281 84.09121094 -24.55273438 84.08789062 C-25.54595703 84.07951172 -26.53917969 84.07113281 -27.5625 84.0625 C-28.55958984 84.05798828 -29.55667969 84.05347656 -30.58398438 84.04882812 C-33.05604849 84.03700007 -35.52799518 84.02051849 -38 84 C-35.69344253 76.23144584 -32.34025566 69.07211832 -28.84823608 61.78649902 C-27.05680414 58.0479227 -25.28260709 54.30118367 -23.5078125 50.5546875 C-23.13965927 49.77830933 -22.77150604 49.00193115 -22.39219666 48.20202637 C-17.53360894 37.93409639 -12.84115277 27.59004956 -8.1418457 17.24853516 C-7.81882477 16.53857391 -7.49580383 15.82861267 -7.16299438 15.09713745 C-6.56445189 13.78117448 -5.96692967 12.46474671 -5.37069702 11.1477356 C-3.65905675 7.38289584 -1.85174062 3.70348125 0 0 Z " fill="#1C3556" transform="translate(797,343)"/>
<path d="M0 0 C22.11 0 44.22 0 67 0 C67 5.28 67 10.56 67 16 C51.82 16 36.64 16 21 16 C21 21.61 21 27.22 21 33 C34.53 33 48.06 33 62 33 C62 38.28 62 43.56 62 49 C48.47 49 34.94 49 21 49 C21 54.94 21 60.88 21 67 C36.84 67 52.68 67 69 67 C69 72.61 69 78.22 69 84 C46.23 84 23.46 84 0 84 C0 56.28 0 28.56 0 0 Z " fill="#203858" transform="translate(940,343)"/>
<path d="M0 0 C0.74016357 0.00563965 1.48032715 0.0112793 2.24291992 0.01708984 C14.0462551 0.27543568 27.36187814 3.62237636 36 12.1875 C36.5775 12.88875 37.155 13.59 37.75 14.3125 C36.19997253 18.19647689 33.74523379 20.34229619 30.625 23.0625 C29.71492187 23.86171875 28.80484375 24.6609375 27.8671875 25.484375 C27.16851563 26.08765625 26.46984375 26.6909375 25.75 27.3125 C23.26690184 26.11890775 21.15370855 24.89768856 18.875 23.3125 C10.93738131 18.23242404 1.87834452 18.36731192 -7.25 19.3125 C-13.58310385 21.00071933 -18.11365184 25.05486414 -21.6640625 30.46875 C-25.74389508 37.67113602 -26.51482309 43.93896588 -24.62109375 51.984375 C-21.95791889 59.8664172 -17.04533039 63.91137261 -10.1875 68.25 C-1.73214275 71.40614717 8.38340626 69.40414843 16.75 67.3125 C16.75 58.7325 16.75 50.1525 16.75 41.3125 C23.35 41.3125 29.95 41.3125 36.75 41.3125 C36.75 53.1925 36.75 65.0725 36.75 77.3125 C15.70127479 87.83686261 15.70127479 87.83686261 1.9375 87.75 C0.82568359 87.76998047 -0.28613281 87.78996094 -1.43164062 87.81054688 C-14.54080393 87.80287621 -26.37098409 82.95859992 -36.0625 74.0625 C-43.87075253 65.73860815 -46.60693813 55.06480682 -46.5625 43.9375 C-46.57861328 43.13828125 -46.59472656 42.3390625 -46.61132812 41.515625 C-46.62020545 30.54324575 -42.43753276 21.88227201 -35.0234375 13.921875 C-25.24531839 4.54729731 -13.51236918 -0.10933601 0 0 Z " fill="#1D3657" transform="translate(716.25,340.6875)"/>
<path d="M0 0 C25.41 0 50.82 0 77 0 C77 5.28 77 10.56 77 16 C67.76 16 58.52 16 49 16 C49 38.44 49 60.88 49 84 C42.07 84 35.14 84 28 84 C28 61.56 28 39.12 28 16 C18.76 16 9.52 16 0 16 C0 10.72 0 5.44 0 0 Z " fill="#1C3556" transform="translate(853,343)"/>
<path d="M0 0 C6.93 0 13.86 0 21 0 C21 22.11 21 44.22 21 67 C35.19 67 49.38 67 64 67 C64 72.61 64 78.22 64 84 C42.88 84 21.76 84 0 84 C0 56.28 0 28.56 0 0 Z " fill="#1A3557" transform="translate(494,343)"/>
<path d="M0 0 C5.75674076 4.56864746 9.30848343 10.24306722 10.19921875 17.6171875 C10.49581086 25.96859692 8.01390889 33.49633714 2.8359375 40.08203125 C-2.80885331 45.91857716 -9.23620895 47.8397483 -17.2265625 48.01953125 C-24.52412363 47.7392152 -30.33768409 46.39567993 -36.0390625 41.64453125 C-43.05266211 32.96791317 -44.97418239 26.78345936 -44.0390625 15.64453125 C-42.29671287 7.42723369 -37.85047862 2.3627381 -31.0390625 -2.35546875 C-21.12623464 -8.17386771 -9.23522545 -6.13912496 0 0 Z " fill="#F9FBFB" transform="translate(629.0390625,363.35546875)"/>
<path d="M0 0 C4.32392847 -0.06903966 8.6459293 -0.12871715 12.9699707 -0.16479492 C14.43943782 -0.17984066 15.90886034 -0.20028238 17.37817383 -0.22631836 C19.4957177 -0.26288955 21.61266565 -0.27976801 23.73046875 -0.29296875 C25.63928833 -0.31653442 25.63928833 -0.31653442 27.58666992 -0.34057617 C31.27073713 0.02701368 33.08737346 0.76024883 36 3 C38.50031654 6.75047482 38.53603554 8.55856266 38 13 C35.45862841 16.15954305 33.85377341 17.71540886 30 19 C27.7161483 19.08378628 25.429899 19.10729915 23.14453125 19.09765625 C22.15207649 19.09553383 22.15207649 19.09553383 21.13957214 19.09336853 C19.03050172 19.08777996 16.92153823 19.07522965 14.8125 19.0625 C13.38086091 19.05748352 11.94922015 19.05292087 10.51757812 19.04882812 C7.01164461 19.038666 3.50594173 19.01908861 0 19 C0 12.73 0 6.46 0 0 Z " fill="#F8FAFA" transform="translate(420,392)"/>
<path d="M0 0 C4.37566252 -0.10804105 8.74865081 -0.18735287 13.125 -0.25 C14.3625 -0.28351563 15.6 -0.31703125 16.875 -0.3515625 C28.20223525 -0.47336073 28.20223525 -0.47336073 33 4 C34 5 34 5 34.3125 8.8125 C34.28363496 12.03383889 34.17080745 12.77795032 32.125 15.4375 C28.44662548 18.14218715 26.23151169 18.11815996 21.6796875 18.09765625 C20.42285156 18.09443359 19.16601562 18.09121094 17.87109375 18.08789062 C16.55238281 18.07951172 15.23367188 18.07113281 13.875 18.0625 C12.53515789 18.05748489 11.195314 18.05292201 9.85546875 18.04882812 C6.57029343 18.03701095 3.28514119 18.01907501 0 18 C0 12.06 0 6.12 0 0 Z " fill="#F7F9FA" transform="translate(420,358)"/>
<path d="M0 0 C6.6 0 13.2 0 20 0 C20 22.11 20 44.22 20 67 C19.67 67 19.34 67 19 67 C19 45.22 19 23.44 19 1 C13.39 1 7.78 1 2 1 C2 27.73 2 54.46 2 82 C21.8 82 41.6 82 62 82 C62 77.71 62 73.42 62 69 C48.47 69 34.94 69 21 69 C21 68.67 21 68.34 21 68 C35.19 68 49.38 68 64 68 C64 73.28 64 78.56 64 84 C42.88 84 21.76 84 0 84 C0 56.28 0 28.56 0 0 Z " fill="#2C3F55" transform="translate(494,343)"/>
<path d="M0 0 C2.90530447 2.50198236 4.16684185 5.17047392 5.69921875 8.65625 C6.42915039 10.31333984 6.42915039 10.31333984 7.17382812 12.00390625 C7.67333984 13.15761719 8.17285156 14.31132812 8.6875 15.5 C9.19861328 16.65371094 9.70972656 17.80742187 10.23632812 18.99609375 C14 27.60882218 14 27.60882218 14 31 C5.42 31 -3.16 31 -12 31 C-11.20222916 26.21337497 -10.41750342 23.22983522 -8.49609375 18.9453125 C-8.00302734 17.83671875 -7.50996094 16.728125 -7.00195312 15.5859375 C-6.48568359 14.44382812 -5.96941406 13.30171875 -5.4375 12.125 C-4.91736328 10.9596875 -4.39722656 9.794375 -3.86132812 8.59375 C-2.58039143 5.72633208 -1.29311475 2.86194152 0 0 Z " fill="#F1F5F7" transform="translate(808,362)"/>
<path d="M0 0 C15.84 0 31.68 0 48 0 C48 0.66 48 1.32 48 2 C32.82 2 17.64 2 2 2 C2 28.4 2 54.8 2 82 C19.16 82 36.32 82 54 82 C53.67 82.66 53.34 83.32 53 84 C35.51 84 18.02 84 0 84 C0 56.28 0 28.56 0 0 Z " fill="#25374E" transform="translate(399,343)"/>
<path d="M0 0 C3.39192363 0.59283621 5.2107757 1.76743189 7.75 4.0625 C8.67039062 4.88427734 8.67039062 4.88427734 9.609375 5.72265625 C10.29773438 6.35494141 10.29773438 6.35494141 11 7 C10.67 7.66 10.34 8.32 10 9 C9.34 9 8.68 9 8 9 C8 8.34 8 7.68 8 7 C7.34 7 6.68 7 6 7 C6 6.34 6 5.68 6 5 C5.01 5 4.02 5 3 5 C3 4.34 3 3.68 3 3 C1.68 2.67 0.36 2.34 -1 2 C-0.67 1.34 -0.34 0.68 0 0 Z " fill="#243850" transform="translate(638,349)"/>
<path d="M0 0 C2.9719385 1.12451727 5.33440687 2.22293791 8 4 C8.6875 6.125 8.6875 6.125 9 8 C6 8 6 8 4.39453125 6.7578125 C3.87246094 6.21898437 3.35039063 5.68015625 2.8125 5.125 C2.28269531 4.59132813 1.75289062 4.05765625 1.20703125 3.5078125 C0 2 0 2 0 0 Z " fill="#25374E" transform="translate(572,409)"/>
<path d="M0 0 C1.69752187 0.25245197 3.38471545 0.57645775 5.0625 0.9375 C5.98160156 1.13214844 6.90070312 1.32679688 7.84765625 1.52734375 C8.91306641 1.76130859 8.91306641 1.76130859 10 2 C10 2.99 10 3.98 10 5 C5.44262737 4.56179109 2.42346555 4.14958831 -1 1 C-0.67 0.67 -0.34 0.34 0 0 Z " fill="#34455A" transform="translate(695,422)"/>
<path d="M0 0 C1.32 0.33 2.64 0.66 4 1 C4.0825 1.61875 4.165 2.2375 4.25 2.875 C4.81258459 5.18437567 4.81258459 5.18437567 7.0625 6.25 C7.701875 6.4975 8.34125 6.745 9 7 C8.34 7.66 7.68 8.32 7 9 C5.82737096 7.88121617 4.66204862 6.75476949 3.5 5.625 C2.8503125 4.99851562 2.200625 4.37203125 1.53125 3.7265625 C0 2 0 2 0 0 Z " fill="#2A3B50" transform="translate(677,409)"/>
<path d="M0 0 C0.598125 0.309375 1.19625 0.61875 1.8125 0.9375 C4.08956772 2.10209704 4.08956772 2.10209704 7 3 C7.99 2.01 8.98 1.02 10 0 C10 3 10 3 8.5 4.6875 C8.005 5.120625 7.51 5.55375 7 6 C3.63279613 4.60667426 2.0140476 3.0210714 0 0 Z " fill="#223246" transform="translate(735,362)"/>
<path d="M0 0 C0.66 0.99 1.32 1.98 2 3 C1.3125 5.625 1.3125 5.625 0 8 C-0.99 8.33 -1.98 8.66 -3 9 C-2.01 6.03 -1.02 3.06 0 0 Z " fill="#2A3E55" transform="translate(781,377)"/>
<path d="M0 0 C-0.33 1.32 -0.66 2.64 -1 4 C-3.31 4.33 -5.62 4.66 -8 5 C-3.16129032 0 -3.16129032 0 0 0 Z " fill="#2A3D54" transform="translate(693,347)"/>
<path d="M0 0 C0.66 0 1.32 0 2 0 C2.33 0.99 2.66 1.98 3 3 C3.515625 3.515625 4.03125 4.03125 4.5625 4.5625 C5.036875 5.036875 5.51125 5.51125 6 6 C6 6.66 6 7.32 6 8 C5.01 8 4.02 8 3 8 C0 2.25 0 2.25 0 0 Z " fill="#22364D" transform="translate(819,384)"/>
<path d="M0 0 C4.21912747 0.4794463 6.79663178 1.16625119 10 4 C6.53058454 3.54177532 3.32604951 3.10868317 0 2 C0 1.34 0 0.68 0 0 Z " fill="#354559" transform="translate(590,423)"/>
<path d="M0 0 C0.66 1.32 1.32 2.64 2 4 C0.35 5.32 -1.3 6.64 -3 8 C-3 6.68 -3 5.36 -3 4 C-2.34 4 -1.68 4 -1 4 C-0.67 2.68 -0.34 1.36 0 0 Z " fill="#263A51" transform="translate(470,373)"/>
<path d="M0 0 C0.33 0.66 0.66 1.32 1 2 C-0.32 3.65 -1.64 5.3 -3 7 C-3.99 6.67 -4.98 6.34 -6 6 C-4.02 4.02 -2.04 2.04 0 0 Z " fill="#26384E" transform="translate(684,352)"/>
</svg>
